<?xml version="1.0" standalone="no"?>
<!DOCTYPE svg PUBLIC "-//W3C//DTD SVG 20010904//EN"
 "http://www.w3.org/TR/2001/REC-SVG-20010904/DTD/svg10.dtd">
<svg version="1.0" xmlns="http://www.w3.org/2000/svg"
 width="512.000000pt" height="512.000000pt" viewBox="0 0 512.000000 512.000000"
 preserveAspectRatio="xMidYMid meet">

<g transform="translate(0.000000,512.000000) scale(0.100000,-0.100000)"
fill="#000000" stroke="none">
<path d="M807 4476 c-46 -17 -64 -32 -83 -67 -11 -23 -14 -108 -14 -484 0
-421 5 -499 25 -418 12 52 126 266 195 370 l70 104 0 202 c0 183 -2 205 -20
234 -34 56 -109 82 -173 59z"/>
<path d="M4203 4470 c-77 -35 -83 -55 -83 -288 l0 -202 63 -93 c174 -254 280
-529 322 -832 13 -94 16 -180 13 -424 -4 -300 -5 -308 -32 -396 -15 -49 -46
-128 -69 -175 -23 -47 -44 -89 -46 -94 -5 -12 376 -1 417 12 l32 11 0 -273 c0
-304 -5 -339 -67 -466 -52 -109 -168 -222 -283 -279 -129 -63 -182 -71 -501
-71 l-275 0 -39 60 c-46 72 -107 121 -184 152 -49 19 -80 22 -256 26 -217 4
-286 -3 -369 -41 -66 -31 -137 -102 -173 -175 -25 -51 -28 -68 -28 -157 0 -87
3 -107 27 -157 37 -79 98 -142 177 -181 l66 -32 260 0 260 0 57 27 c65 30 136
92 163 142 l18 34 321 4 c304 5 326 7 416 30 122 33 193 65 295 133 150 99
283 263 348 426 63 158 61 117 64 1014 3 557 1 841 -7 885 -15 89 -62 181
-124 243 -105 105 -205 137 -433 137 l-143 0 0 458 c0 441 -1 458 -20 490 -21
34 -87 72 -125 72 -11 0 -39 -9 -62 -20z"/>
<path d="M2195 3451 c-345 -6 -374 -8 -436 -29 -189 -63 -338 -226 -389 -428
-35 -134 -20 -269 44 -399 68 -138 190 -244 346 -299 l85 -31 715 0 c792 0
755 -3 892 67 228 117 358 385 309 641 -41 213 -219 402 -437 463 -49 14 -117
17 -409 19 -192 1 -516 -1 -720 -4z m-162 -405 c18 -7 43 -26 57 -40 23 -25
25 -37 28 -136 3 -85 0 -114 -13 -139 -36 -70 -138 -94 -206 -48 -51 34 -69
78 -69 171 0 104 23 156 83 185 49 25 76 26 120 7z"/>
</g>
</svg>
